<svg width="1589" height="301" viewBox="0 0 1589 301" fill="none" xmlns="http://www.w3.org/2000/svg">
<path d="M391.403 144.249C391.403 157.879 394.709 168.54 401.321 176.232C408.069 183.924 417.448 187.77 429.458 187.77C435.396 187.77 441.671 186.826 448.283 184.936C454.896 182.912 461.104 180.078 466.906 176.435L468.931 208.822C463.263 211.791 457.055 214.085 450.308 215.705C443.695 217.324 437.15 218.134 430.673 218.134C415.693 218.134 402.806 215.232 392.01 209.43C381.349 203.492 373.184 194.99 367.517 183.924C361.849 172.859 359.015 159.634 359.015 144.249C359.015 128.865 361.849 115.64 367.517 104.575C373.184 93.5087 381.349 85.0744 392.01 79.2716C402.806 73.3339 415.693 70.365 430.673 70.365C437.15 70.365 443.695 71.1747 450.308 72.7941C457.055 74.4135 463.263 76.6401 468.931 79.4741L466.906 111.862C461.104 108.353 454.896 105.654 448.283 103.765C441.671 101.741 435.396 100.728 429.458 100.728C417.448 100.728 408.069 104.575 401.321 112.267C394.709 119.824 391.403 130.485 391.403 144.249ZM517.25 63.2802V214.895H488.708V63.2802H517.25ZM573.952 214.895H545.612V140.201H536.301V113.886H573.952V214.895ZM556.948 100.526C551.955 100.526 548.042 99.1091 545.208 96.2752C542.509 93.4412 541.159 89.5277 541.159 84.5346C541.159 79.5415 542.509 75.628 545.208 72.7941C548.042 69.9602 551.955 68.5432 556.948 68.5432C561.671 68.5432 565.382 69.9602 568.081 72.7941C570.915 75.628 572.332 79.5415 572.332 84.5346C572.332 89.5277 570.915 93.4412 568.081 96.2752C565.382 99.1091 561.671 100.526 556.948 100.526ZM644.955 218.134C636.048 218.134 627.749 216.379 620.057 212.871C612.365 209.362 606.022 203.627 601.029 195.665C596.171 187.568 593.742 177.177 593.742 164.492C593.742 147.893 598.06 134.803 606.697 125.222C615.333 115.64 627.074 110.85 641.918 110.85C656.493 110.85 667.896 115.235 676.128 124.007C684.36 132.779 688.476 145.127 688.476 161.051C688.476 165.369 688.138 168.878 687.464 171.577H622.688C624.442 185.341 632.472 192.224 646.776 192.224C651.905 192.224 656.83 191.481 661.553 189.997C666.277 188.513 670.325 186.488 673.699 183.924L674.913 211.251C666.816 215.84 656.83 218.134 644.955 218.134ZM661.553 157.812C661.014 151.739 658.989 147.016 655.481 143.642C652.107 140.133 647.586 138.379 641.918 138.379C636.655 138.379 632.27 140.403 628.761 144.452C625.387 148.365 623.295 153.696 622.486 160.443L661.553 157.812ZM721.692 113.886L731.003 154.168H732.016C732.15 142.428 734.647 132.306 739.505 123.805C744.498 115.168 752.933 110.85 764.808 110.85C774.524 110.85 782.419 114.831 788.492 122.793C794.564 130.62 797.601 141.348 797.601 154.978V214.895H769.261V158.217C769.261 151.874 767.844 147.016 765.01 143.642C762.312 140.133 758.331 138.379 753.068 138.379C748.749 138.379 744.971 139.999 741.732 143.237C738.493 146.476 736.064 150.525 734.445 155.383C732.825 160.241 732.016 165.099 732.016 169.957V214.895H703.474V113.886H721.692ZM884.937 215.907C880.888 217.392 874.748 218.134 866.516 218.134C854.506 217.999 844.722 214.693 837.165 208.215C829.743 201.603 826.032 190.604 826.032 175.22V140.201H812.267V113.886H829.473L826.032 84.1298H858.217L847.084 113.886H884.127V140.201H854.371V173.398C854.371 180.011 855.923 184.599 859.026 187.163C862.13 189.592 866.314 190.807 871.577 190.807C876.705 190.807 880.753 190.267 883.722 189.187L884.937 215.907ZM952.887 67.9209C951.042 67.9209 949.296 68.3163 947.649 69.107C946.002 69.8977 944.552 71.1826 943.3 72.9617C942.114 74.6749 941.159 76.8824 940.434 79.584C939.709 82.2856 939.346 85.5473 939.346 89.3691V113.684H960.992V120.8H939.346V198.685C939.346 207.647 938.16 215.916 935.788 223.494C933.482 231.072 929.957 237.595 925.212 243.064C920.468 248.599 914.538 252.915 907.421 256.012C900.305 259.109 892.002 260.658 882.514 260.658C879.153 260.658 875.925 260.361 872.828 259.768C869.731 259.241 866.996 258.483 864.624 257.495C862.252 256.506 860.374 255.32 858.99 253.937C857.54 252.619 856.816 251.136 856.816 249.489C856.816 248.303 856.98 247.084 857.31 245.832C857.639 244.646 858.133 243.558 858.792 242.57C859.451 241.582 860.275 240.758 861.263 240.099C862.186 239.506 863.273 239.209 864.525 239.209C865.25 239.209 865.909 239.572 866.502 240.297C867.029 241.022 867.589 241.911 868.182 242.965C868.775 244.02 869.467 245.173 870.258 246.425C870.983 247.743 871.938 248.929 873.124 249.983C874.31 251.037 875.793 251.927 877.572 252.652C879.285 253.376 881.394 253.739 883.898 253.739C887.258 253.739 890.223 253.047 892.793 251.663C895.363 250.345 897.57 248.5 899.415 246.128C901.26 243.756 902.809 240.956 904.061 237.727C905.313 234.498 906.301 231.039 907.026 227.349C907.751 223.659 908.245 219.804 908.509 215.785C908.838 211.765 909.003 207.746 909.003 203.726V120.8H890.816V113.684H909.003V102.119C909.003 96.3208 909.695 91.28 911.078 86.9969C912.528 82.648 914.406 78.958 916.712 75.9269C919.084 72.8958 921.753 70.4249 924.718 68.514C927.683 66.6031 930.682 65.0875 933.713 63.9674C936.81 62.8472 939.808 62.0894 942.707 61.6941C945.606 61.2987 948.143 61.101 950.318 61.101C954.996 61.101 959.147 61.4634 962.771 62.1882C966.396 62.8472 969.427 63.7697 971.865 64.9557C974.303 66.0759 976.148 67.3938 977.4 68.9093C978.652 70.4249 979.278 71.9733 979.278 73.5548C979.278 74.7408 979.08 75.9599 978.685 77.2118C978.355 78.3979 977.861 79.5181 977.202 80.5724C976.543 81.5608 975.719 82.3844 974.731 83.0433C973.808 83.6364 972.754 83.9329 971.568 83.9329C970.843 83.9329 970.184 83.5375 969.591 82.7468C968.998 81.9561 968.372 80.9677 967.713 79.7816C967.054 78.5956 966.33 77.3107 965.539 75.9269C964.748 74.5432 963.76 73.2583 962.574 72.0722C961.454 70.8861 960.103 69.8977 958.521 69.107C956.94 68.3163 955.062 67.9209 952.887 67.9209ZM1016.54 218.134C1000.88 218.134 988.67 213.411 979.898 203.964C971.262 194.518 966.943 181.36 966.943 164.492C966.943 147.488 971.262 134.331 979.898 125.019C988.67 115.573 1000.88 110.85 1016.54 110.85C1032.06 110.85 1044.13 115.573 1052.77 125.019C1061.41 134.466 1065.73 147.691 1065.73 164.694C1065.73 181.563 1061.41 194.72 1052.77 204.167C1044.13 213.478 1032.06 218.134 1016.54 218.134ZM995.687 164.492C995.687 173.533 997.509 180.416 1001.15 185.139C1004.8 189.862 1009.92 192.224 1016.54 192.224C1023.01 192.224 1028.01 189.862 1031.52 185.139C1035.16 180.416 1036.98 173.533 1036.98 164.492C1036.98 155.45 1035.16 148.568 1031.52 143.845C1028.01 139.121 1023.01 136.76 1016.54 136.76C1009.92 136.76 1004.8 139.121 1001.15 143.845C997.509 148.568 995.687 155.45 995.687 164.492ZM1099.83 113.886L1109.75 156.192H1110.36C1110.49 143.912 1112.38 133.319 1116.02 124.412C1119.67 115.37 1125.74 110.85 1134.24 110.85C1138.02 110.85 1141.93 111.727 1145.98 113.481L1144.77 146.881C1139.1 144.452 1134.18 143.237 1129.99 143.237C1123.38 143.237 1118.45 146.139 1115.21 151.941C1111.98 157.609 1110.36 165.774 1110.36 176.435V214.895H1081.82V113.886H1099.83ZM1234.27 144.857C1230.62 142.967 1226.44 141.415 1221.72 140.201C1217.13 138.851 1212.61 138.177 1208.16 138.177C1200.73 138.177 1194.8 140.268 1190.34 144.452C1186.02 148.635 1183.86 155.315 1183.86 164.492C1183.86 173.668 1186.02 180.348 1190.34 184.532C1194.8 188.58 1200.73 190.604 1208.16 190.604C1212.61 190.604 1217.13 189.997 1221.72 188.782C1226.44 187.568 1230.62 185.949 1234.27 183.924L1235.68 211.656C1228.13 215.975 1218.41 218.134 1206.54 218.134C1197.36 218.134 1188.93 216.379 1181.23 212.871C1173.54 209.362 1167.27 203.627 1162.41 195.665C1157.68 187.568 1155.32 177.177 1155.32 164.492C1155.32 151.807 1157.68 141.483 1162.41 133.521C1167.27 125.424 1173.54 119.621 1181.23 116.113C1188.93 112.604 1197.36 110.85 1206.54 110.85C1212.07 110.85 1217.33 111.389 1222.33 112.469C1227.45 113.549 1231.91 115.1 1235.68 117.125L1234.27 144.857ZM1299.94 218.134C1291.03 218.134 1282.73 216.379 1275.04 212.871C1267.35 209.362 1261 203.627 1256.01 195.665C1251.15 187.568 1248.72 177.177 1248.72 164.492C1248.72 147.893 1253.04 134.803 1261.68 125.222C1270.31 115.64 1282.05 110.85 1296.9 110.85C1311.47 110.85 1322.88 115.235 1331.11 124.007C1339.34 132.779 1343.46 145.127 1343.46 161.051C1343.46 165.369 1343.12 168.878 1342.44 171.577H1277.67C1279.42 185.341 1287.45 192.224 1301.76 192.224C1306.89 192.224 1311.81 191.481 1316.53 189.997C1321.26 188.513 1325.31 186.488 1328.68 183.924L1329.89 211.251C1321.8 215.84 1311.81 218.134 1299.94 218.134ZM1316.53 157.812C1315.99 151.739 1313.97 147.016 1310.46 143.642C1307.09 140.133 1302.57 138.379 1296.9 138.379C1291.64 138.379 1287.25 140.403 1283.74 144.452C1280.37 148.365 1278.28 153.696 1277.47 160.443L1316.53 157.812ZM1434.31 73.1989H1492.81L1532.08 214.895H1498.89L1491.4 185.341H1435.73L1428.24 214.895H1395.24L1434.31 73.1989ZM1485.32 161.455L1463.87 76.0329H1463.26L1441.8 161.455H1485.32ZM1577.23 214.895H1548.89V140.201H1539.58V113.886H1577.23V214.895ZM1560.22 100.526C1555.23 100.526 1551.32 99.1091 1548.48 96.2752C1545.78 93.4412 1544.43 89.5277 1544.43 84.5346C1544.43 79.5415 1545.78 75.628 1548.48 72.7941C1551.32 69.9602 1555.23 68.5432 1560.22 68.5432C1564.95 68.5432 1568.66 69.9602 1571.36 72.7941C1574.19 75.628 1575.61 79.5415 1575.61 84.5346C1575.61 89.5277 1574.19 93.4412 1571.36 96.2752C1568.66 99.1091 1564.95 100.526 1560.22 100.526Z" fill="white"></path>
<path fill-rule="evenodd" clip-rule="evenodd" d="M107.265 300.389C156.776 248.04 148.264 275.679 212.653 244.991C243.3 230.387 277.376 191.349 272.59 145.238L145.714 145.287C137.679 168.745 107.034 280.641 107.265 300.389Z" fill="url(#paint0_linear_4232_395)"></path>
<path fill-rule="evenodd" clip-rule="evenodd" d="M83.0358 223.096C91.7609 200.167 101.891 169.613 105.497 145.222H78.37C82.1161 102.041 84.1925 120.939 112.919 116.72C127.87 110.005 117.034 51.5208 216.613 28.5696C108.717 -25.9422 -14.5495 126.188 83.0358 223.096Z" fill="url(#paint1_linear_4232_395)"></path>
<path fill-rule="evenodd" clip-rule="evenodd" d="M87.1103 265.668C72.3866 239.029 0.826386 181.596 39.9685 91.1467C73.176 14.4133 122.097 12.1492 192.114 10.5114C141.856 -7.18456 71.1554 -9.62402 23.5095 60.6296C-22.9142 126.449 -0.00645405 246.759 87.1111 265.668H87.1103Z" fill="#35E834"></path>
<path fill-rule="evenodd" clip-rule="evenodd" d="M157.448 118.977H273.182C270.653 86.38 249.675 52.5554 218.298 51.9545C186.412 51.3438 159.969 88.2055 157.448 118.977H157.448Z" fill="#35E834"></path>
<defs>
<linearGradient id="paint0_linear_4232_395" x1="190.153" y1="145.238" x2="134.945" y2="299.95" gradientUnits="userSpaceOnUse">
<stop stop-color="#35E834"></stop>
<stop offset="1" stop-color="#D0F56B"></stop>
</linearGradient>
<linearGradient id="paint1_linear_4232_395" x1="132.081" y1="17.0925" x2="132.081" y2="223.096" gradientUnits="userSpaceOnUse">
<stop stop-color="#36D7ED"></stop>
<stop offset="1" stop-color="#EEFC53"></stop>
</linearGradient>
</defs>
</svg>