<svg width="274" height="301" viewBox="0 0 274 301" fill="none" xmlns="http://www.w3.org/2000/svg">
<path fill-rule="evenodd" clip-rule="evenodd" d="M107.265 300.389C156.776 248.04 148.264 275.679 212.653 244.991C243.3 230.387 277.376 191.349 272.59 145.238L145.714 145.287C137.679 168.745 107.034 280.641 107.265 300.389Z" fill="url(#paint0_linear_4232_398)"></path>
<path fill-rule="evenodd" clip-rule="evenodd" d="M83.0358 223.096C91.7609 200.167 101.891 169.613 105.497 145.222H78.37C82.1161 102.041 84.1925 120.939 112.919 116.72C127.87 110.005 117.034 51.5208 216.613 28.5696C108.717 -25.9422 -14.5495 126.188 83.0358 223.096Z" fill="url(#paint1_linear_4232_398)"></path>
<path fill-rule="evenodd" clip-rule="evenodd" d="M87.1103 265.668C72.3866 239.029 0.826386 181.596 39.9685 91.1467C73.176 14.4133 122.097 12.1492 192.114 10.5114C141.856 -7.18456 71.1554 -9.62402 23.5095 60.6296C-22.9142 126.449 -0.00645405 246.759 87.1111 265.668H87.1103Z" fill="#35E834"></path>
<path fill-rule="evenodd" clip-rule="evenodd" d="M157.448 118.977H273.182C270.653 86.38 249.675 52.5554 218.298 51.9545C186.412 51.3438 159.969 88.2055 157.448 118.977H157.448Z" fill="#35E834"></path>
<defs>
<linearGradient id="paint0_linear_4232_398" x1="190.153" y1="145.238" x2="134.945" y2="299.95" gradientUnits="userSpaceOnUse">
<stop stop-color="#35E834"></stop>
<stop offset="1" stop-color="#D0F56B"></stop>
</linearGradient>
<linearGradient id="paint1_linear_4232_398" x1="132.081" y1="17.0925" x2="132.081" y2="223.096" gradientUnits="userSpaceOnUse">
<stop stop-color="#36D7ED"></stop>
<stop offset="1" stop-color="#EEFC53"></stop>
</linearGradient>
</defs>
</svg>